<svg width="206" height="206" viewBox="0 0 206 206" fill="none" xmlns="http://www.w3.org/2000/svg">
<circle cx="103" cy="5" r="5" fill="black"/>
<circle cx="89" cy="5" r="5" fill="black"/>
<circle cx="131" cy="5" r="5" fill="black"/>
<circle cx="75" cy="5" r="5" fill="black"/>
<circle cx="117" cy="5" r="5" fill="black"/>
<circle cx="103" cy="201" r="5" fill="black"/>
<circle cx="89" cy="201" r="5" fill="black"/>
<circle cx="131" cy="201" r="5" fill="black"/>
<circle cx="75" cy="201" r="5" fill="black"/>
<circle cx="117" cy="201" r="5" fill="black"/>
<circle cx="103" cy="19" r="5" fill="black"/>
<circle cx="61" cy="19" r="5" fill="black"/>
<circle cx="89" cy="19" r="5" fill="black"/>
<circle cx="47" cy="19" r="5" fill="black"/>
<circle cx="131" cy="19" r="5" fill="black"/>
<circle cx="159" cy="19" r="5" fill="black"/>
<circle cx="75" cy="19" r="5" fill="black"/>
<circle cx="117" cy="19" r="5" fill="black"/>
<circle cx="145" cy="19" r="5" fill="black"/>
<circle cx="103" cy="187" r="5" fill="black"/>
<circle cx="61" cy="187" r="5" fill="black"/>
<circle cx="89" cy="187" r="5" fill="black"/>
<circle cx="47" cy="187" r="5" fill="black"/>
<circle cx="131" cy="187" r="5" fill="black"/>
<circle cx="159" cy="187" r="5" fill="black"/>
<circle cx="75" cy="187" r="5" fill="black"/>
<circle cx="117" cy="187" r="5" fill="black"/>
<circle cx="145" cy="187" r="5" fill="black"/>
<circle cx="103" cy="33" r="5" fill="black"/>
<circle cx="61" cy="33" r="5" fill="black"/>
<circle cx="89" cy="33" r="5" fill="black"/>
<circle cx="47" cy="33" r="5" fill="black"/>
<circle cx="33" cy="33" r="5" fill="black"/>
<circle cx="131" cy="33" r="5" fill="black"/>
<circle cx="159" cy="33" r="5" fill="black"/>
<circle cx="173" cy="33" r="5" fill="black"/>
<circle cx="75" cy="33" r="5" fill="black"/>
<circle cx="117" cy="33" r="5" fill="black"/>
<circle cx="145" cy="33" r="5" fill="black"/>
<circle cx="103" cy="47" r="5" fill="black"/>
<circle cx="61" cy="47" r="5" fill="black"/>
<circle cx="89" cy="47" r="5" fill="black"/>
<circle cx="47" cy="47" r="5" fill="black"/>
<circle cx="33" cy="47" r="5" fill="black"/>
<circle cx="19" cy="47" r="5" fill="black"/>
<circle cx="131" cy="47" r="5" fill="black"/>
<circle cx="159" cy="47" r="5" fill="black"/>
<circle cx="173" cy="47" r="5" fill="black"/>
<circle cx="187" cy="47" r="5" fill="black"/>
<circle cx="75" cy="47" r="5" fill="black"/>
<circle cx="117" cy="47" r="5" fill="black"/>
<circle cx="145" cy="47" r="5" fill="black"/>
<circle cx="103" cy="61" r="5" fill="black"/>
<circle cx="61" cy="61" r="5" fill="black"/>
<circle cx="89" cy="61" r="5" fill="black"/>
<circle cx="47" cy="61" r="5" fill="black"/>
<circle cx="33" cy="61" r="5" fill="black"/>
<circle cx="19" cy="61" r="5" fill="black"/>
<circle cx="131" cy="61" r="5" fill="black"/>
<circle cx="159" cy="61" r="5" fill="black"/>
<circle cx="173" cy="61" r="5" fill="black"/>
<circle cx="187" cy="61" r="5" fill="black"/>
<circle cx="75" cy="61" r="5" fill="black"/>
<circle cx="117" cy="61" r="5" fill="black"/>
<circle cx="145" cy="61" r="5" fill="black"/>
<circle cx="103" cy="75" r="5" fill="black"/>
<circle cx="61" cy="75" r="5" fill="black"/>
<circle cx="89" cy="75" r="5" fill="black"/>
<circle cx="47" cy="75" r="5" fill="black"/>
<circle cx="33" cy="75" r="5" fill="black"/>
<circle cx="19" cy="75" r="5" fill="black"/>
<circle cx="5" cy="75" r="5" fill="black"/>
<circle cx="131" cy="75" r="5" fill="black"/>
<circle cx="159" cy="75" r="5" fill="black"/>
<circle cx="173" cy="75" r="5" fill="black"/>
<circle cx="187" cy="75" r="5" fill="black"/>
<circle cx="201" cy="75" r="5" fill="black"/>
<circle cx="75" cy="75" r="5" fill="black"/>
<circle cx="117" cy="75" r="5" fill="black"/>
<circle cx="145" cy="75" r="5" fill="black"/>
<circle cx="103" cy="89" r="5" fill="black"/>
<circle cx="61" cy="89" r="5" fill="black"/>
<circle cx="89" cy="89" r="5" fill="black"/>
<circle cx="47" cy="89" r="5" fill="black"/>
<circle cx="33" cy="89" r="5" fill="black"/>
<circle cx="19" cy="89" r="5" fill="black"/>
<circle cx="5" cy="89" r="5" fill="black"/>
<circle cx="131" cy="89" r="5" fill="black"/>
<circle cx="159" cy="89" r="5" fill="black"/>
<circle cx="173" cy="89" r="5" fill="black"/>
<circle cx="187" cy="89" r="5" fill="black"/>
<circle cx="201" cy="89" r="5" fill="black"/>
<circle cx="75" cy="89" r="5" fill="black"/>
<circle cx="117" cy="89" r="5" fill="black"/>
<circle cx="145" cy="89" r="5" fill="black"/>
<circle cx="103" cy="117" r="5" fill="black"/>
<circle cx="61" cy="117" r="5" fill="black"/>
<circle cx="89" cy="117" r="5" fill="black"/>
<circle cx="47" cy="117" r="5" fill="black"/>
<circle cx="33" cy="117" r="5" fill="black"/>
<circle cx="19" cy="117" r="5" fill="black"/>
<circle cx="5" cy="117" r="5" fill="black"/>
<circle cx="131" cy="117" r="5" fill="black"/>
<circle cx="159" cy="117" r="5" fill="black"/>
<circle cx="173" cy="117" r="5" fill="black"/>
<circle cx="187" cy="117" r="5" fill="black"/>
<circle cx="201" cy="117" r="5" fill="black"/>
<circle cx="75" cy="117" r="5" fill="black"/>
<circle cx="117" cy="117" r="5" fill="black"/>
<circle cx="145" cy="117" r="5" fill="black"/>
<circle cx="103" cy="103" r="5" fill="black"/>
<circle cx="61" cy="103" r="5" fill="black"/>
<circle cx="89" cy="103" r="5" fill="black"/>
<circle cx="47" cy="103" r="5" fill="black"/>
<circle cx="33" cy="103" r="5" fill="black"/>
<circle cx="19" cy="103" r="5" fill="black"/>
<circle cx="5" cy="103" r="5" fill="black"/>
<circle cx="131" cy="103" r="5" fill="black"/>
<circle cx="159" cy="103" r="5" fill="black"/>
<circle cx="173" cy="103" r="5" fill="black"/>
<circle cx="187" cy="103" r="5" fill="black"/>
<circle cx="201" cy="103" r="5" fill="black"/>
<circle cx="75" cy="103" r="5" fill="black"/>
<circle cx="117" cy="103" r="5" fill="black"/>
<circle cx="145" cy="103" r="5" fill="black"/>
<circle cx="103" cy="131" r="5" fill="black"/>
<circle cx="61" cy="131" r="5" fill="black"/>
<circle cx="89" cy="131" r="5" fill="black"/>
<circle cx="47" cy="131" r="5" fill="black"/>
<circle cx="33" cy="131" r="5" fill="black"/>
<circle cx="19" cy="131" r="5" fill="black"/>
<circle cx="5" cy="131" r="5" fill="black"/>
<circle cx="131" cy="131" r="5" fill="black"/>
<circle cx="159" cy="131" r="5" fill="black"/>
<circle cx="173" cy="131" r="5" fill="black"/>
<circle cx="187" cy="131" r="5" fill="black"/>
<circle cx="201" cy="131" r="5" fill="black"/>
<circle cx="75" cy="131" r="5" fill="black"/>
<circle cx="117" cy="131" r="5" fill="black"/>
<circle cx="145" cy="131" r="5" fill="black"/>
<circle cx="103" cy="145" r="5" fill="black"/>
<circle cx="61" cy="145" r="5" fill="black"/>
<circle cx="89" cy="145" r="5" fill="black"/>
<circle cx="47" cy="145" r="5" fill="black"/>
<circle cx="33" cy="145" r="5" fill="black"/>
<circle cx="19" cy="145" r="5" fill="black"/>
<circle cx="131" cy="145" r="5" fill="black"/>
<circle cx="159" cy="145" r="5" fill="black"/>
<circle cx="173" cy="145" r="5" fill="black"/>
<circle cx="187" cy="145" r="5" fill="black"/>
<circle cx="75" cy="145" r="5" fill="black"/>
<circle cx="117" cy="145" r="5" fill="black"/>
<circle cx="145" cy="145" r="5" fill="black"/>
<circle cx="103" cy="159" r="5" fill="black"/>
<circle cx="61" cy="159" r="5" fill="black"/>
<circle cx="89" cy="159" r="5" fill="black"/>
<circle cx="47" cy="159" r="5" fill="black"/>
<circle cx="33" cy="159" r="5" fill="black"/>
<circle cx="19" cy="159" r="5" fill="black"/>
<circle cx="131" cy="159" r="5" fill="black"/>
<circle cx="159" cy="159" r="5" fill="black"/>
<circle cx="173" cy="159" r="5" fill="black"/>
<circle cx="187" cy="159" r="5" fill="black"/>
<circle cx="75" cy="159" r="5" fill="black"/>
<circle cx="117" cy="159" r="5" fill="black"/>
<circle cx="145" cy="159" r="5" fill="black"/>
<circle cx="103" cy="173" r="5" fill="black"/>
<circle cx="61" cy="173" r="5" fill="black"/>
<circle cx="89" cy="173" r="5" fill="black"/>
<circle cx="47" cy="173" r="5" fill="black"/>
<circle cx="33" cy="173" r="5" fill="black"/>
<circle cx="131" cy="173" r="5" fill="black"/>
<circle cx="159" cy="173" r="5" fill="black"/>
<circle cx="173" cy="173" r="5" fill="black"/>
<circle cx="75" cy="173" r="5" fill="black"/>
<circle cx="117" cy="173" r="5" fill="black"/>
<circle cx="145" cy="173" r="5" fill="black"/>
</svg>
