<svg width="265" height="158" viewBox="0 0 265 158" fill="none" xmlns="http://www.w3.org/2000/svg">
<g opacity="0.1">
<ellipse cx="253.895" cy="148.479" rx="9.5163" ry="9.52096" transform="rotate(-180 253.895 148.479)" fill="black"/>
<ellipse cx="184.109" cy="148.479" rx="9.5163" ry="9.52096" transform="rotate(-180 184.109 148.479)" fill="black"/>
<ellipse cx="219.002" cy="148.479" rx="9.5163" ry="9.52096" transform="rotate(-180 219.002 148.479)" fill="black"/>
<ellipse cx="149.216" cy="148.479" rx="9.5163" ry="9.52096" transform="rotate(-180 149.216 148.479)" fill="black"/>
<ellipse cx="114.323" cy="148.479" rx="9.5163" ry="9.52096" transform="rotate(-180 114.323 148.479)" fill="black"/>
<ellipse cx="44.5369" cy="148.479" rx="9.5163" ry="9.52096" transform="rotate(-180 44.5369 148.479)" fill="black"/>
<ellipse cx="79.43" cy="148.479" rx="9.5163" ry="9.52096" transform="rotate(-180 79.43 148.479)" fill="black"/>
<ellipse cx="9.64386" cy="148.479" rx="9.5163" ry="9.52096" transform="rotate(-180 9.64386 148.479)" fill="black"/>
<ellipse cx="253.895" cy="113.569" rx="9.5163" ry="9.52096" transform="rotate(-180 253.895 113.569)" fill="black"/>
<ellipse cx="184.109" cy="113.569" rx="9.5163" ry="9.52096" transform="rotate(-180 184.109 113.569)" fill="black"/>
<ellipse cx="219.002" cy="113.569" rx="9.5163" ry="9.52096" transform="rotate(-180 219.002 113.569)" fill="black"/>
<ellipse cx="149.216" cy="113.569" rx="9.5163" ry="9.52096" transform="rotate(-180 149.216 113.569)" fill="black"/>
<ellipse cx="114.323" cy="113.569" rx="9.5163" ry="9.52096" transform="rotate(-180 114.323 113.569)" fill="black"/>
<ellipse cx="44.5369" cy="113.569" rx="9.5163" ry="9.52096" transform="rotate(-180 44.5369 113.569)" fill="black"/>
<ellipse cx="79.43" cy="113.569" rx="9.5163" ry="9.52096" transform="rotate(-180 79.43 113.569)" fill="black"/>
<ellipse cx="9.64386" cy="113.569" rx="9.5163" ry="9.52096" transform="rotate(-180 9.64386 113.569)" fill="black"/>
<ellipse cx="253.895" cy="78.6587" rx="9.5163" ry="9.52096" transform="rotate(-180 253.895 78.6587)" fill="black"/>
<ellipse cx="184.109" cy="78.6587" rx="9.5163" ry="9.52096" transform="rotate(-180 184.109 78.6587)" fill="black"/>
<ellipse cx="219.002" cy="78.6587" rx="9.5163" ry="9.52096" transform="rotate(-180 219.002 78.6587)" fill="black"/>
<ellipse cx="149.216" cy="78.6587" rx="9.5163" ry="9.52096" transform="rotate(-180 149.216 78.6587)" fill="black"/>
<ellipse cx="114.323" cy="78.6587" rx="9.5163" ry="9.52096" transform="rotate(-180 114.323 78.6587)" fill="black"/>
<ellipse cx="44.5369" cy="78.6587" rx="9.5163" ry="9.52096" transform="rotate(-180 44.5369 78.6587)" fill="black"/>
<ellipse cx="79.43" cy="78.6587" rx="9.5163" ry="9.52096" transform="rotate(-180 79.43 78.6587)" fill="black"/>
<ellipse cx="9.64386" cy="78.6587" rx="9.5163" ry="9.52096" transform="rotate(-180 9.64386 78.6587)" fill="black"/>
<ellipse cx="253.895" cy="43.7486" rx="9.5163" ry="9.52096" transform="rotate(-180 253.895 43.7486)" fill="black"/>
<ellipse cx="254.817" cy="9.52103" rx="9.5163" ry="9.52096" transform="rotate(-180 254.817 9.52103)" fill="black"/>
<ellipse cx="184.109" cy="43.7486" rx="9.5163" ry="9.52096" transform="rotate(-180 184.109 43.7486)" fill="black"/>
<ellipse cx="184.767" cy="9.52103" rx="9.5163" ry="9.52096" transform="rotate(-180 184.767 9.52103)" fill="black"/>
<ellipse cx="219.002" cy="43.7486" rx="9.5163" ry="9.52096" transform="rotate(-180 219.002 43.7486)" fill="black"/>
<ellipse cx="219.792" cy="9.52103" rx="9.5163" ry="9.52096" transform="rotate(-180 219.792 9.52103)" fill="black"/>
<ellipse cx="149.216" cy="43.7486" rx="9.5163" ry="9.52096" transform="rotate(-180 149.216 43.7486)" fill="black"/>
<ellipse cx="149.743" cy="9.52103" rx="9.5163" ry="9.52096" transform="rotate(-180 149.743 9.52103)" fill="black"/>
<ellipse cx="114.323" cy="43.7486" rx="9.5163" ry="9.52096" transform="rotate(-180 114.323 43.7486)" fill="black"/>
<ellipse cx="114.719" cy="9.52103" rx="9.5163" ry="9.52096" transform="rotate(-180 114.719 9.52103)" fill="black"/>
<ellipse cx="44.5369" cy="43.7486" rx="9.5163" ry="9.52096" transform="rotate(-180 44.5369 43.7486)" fill="black"/>
<ellipse cx="44.6688" cy="9.52103" rx="9.5163" ry="9.52096" transform="rotate(-180 44.6688 9.52103)" fill="black"/>
<ellipse cx="79.43" cy="43.7486" rx="9.5163" ry="9.52096" transform="rotate(-180 79.43 43.7486)" fill="black"/>
<ellipse cx="79.6937" cy="9.52103" rx="9.5163" ry="9.52096" transform="rotate(-180 79.6937 9.52103)" fill="black"/>
<ellipse cx="9.64386" cy="43.7486" rx="9.5163" ry="9.52096" transform="rotate(-180 9.64386 43.7486)" fill="black"/>
<ellipse cx="9.64386" cy="9.52103" rx="9.5163" ry="9.52096" transform="rotate(-180 9.64386 9.52103)" fill="black"/>
</g>
</svg>
