<svg width="263" height="123" viewBox="0 0 263 123" fill="none" xmlns="http://www.w3.org/2000/svg">
<ellipse cx="9.50602" cy="9.46153" rx="9.50602" ry="9.46153" fill="#FFB700" fill-opacity="0.2"/>
<ellipse cx="79.217" cy="9.46153" rx="9.50602" ry="9.46153" fill="#FFB700" fill-opacity="0.2"/>
<ellipse cx="44.3615" cy="9.46153" rx="9.50602" ry="9.46153" fill="#FFB700" fill-opacity="0.2"/>
<ellipse cx="114.072" cy="9.46153" rx="9.50602" ry="9.46153" fill="#FFB700" fill-opacity="0.2"/>
<ellipse cx="148.927" cy="9.46153" rx="9.50602" ry="9.46153" fill="#FFB700" fill-opacity="0.2"/>
<ellipse cx="218.638" cy="9.46153" rx="9.50602" ry="9.46153" fill="#FFB700" fill-opacity="0.2"/>
<ellipse cx="183.783" cy="9.46153" rx="9.50602" ry="9.46153" fill="#FFB700" fill-opacity="0.2"/>
<ellipse cx="253.494" cy="9.46153" rx="9.50602" ry="9.46153" fill="#FFB700" fill-opacity="0.2"/>
<ellipse cx="9.50602" cy="78.8461" rx="9.50602" ry="9.46153" fill="#FFB700" fill-opacity="0.2"/>
<ellipse cx="79.217" cy="78.8461" rx="9.50602" ry="9.46153" fill="#FFB700" fill-opacity="0.2"/>
<ellipse cx="44.3615" cy="78.8461" rx="9.50602" ry="9.46153" fill="#FFB700" fill-opacity="0.2"/>
<ellipse cx="114.072" cy="78.8461" rx="9.50602" ry="9.46153" fill="#FFB700" fill-opacity="0.2"/>
<ellipse cx="148.927" cy="78.8461" rx="9.50602" ry="9.46153" fill="#FFB700" fill-opacity="0.2"/>
<ellipse cx="218.638" cy="78.8461" rx="9.50602" ry="9.46153" fill="#FFB700" fill-opacity="0.2"/>
<ellipse cx="183.783" cy="78.8461" rx="9.50602" ry="9.46153" fill="#FFB700" fill-opacity="0.2"/>
<ellipse cx="253.494" cy="78.8461" rx="9.50602" ry="9.46153" fill="#FFB700" fill-opacity="0.2"/>
<ellipse cx="9.50602" cy="113.538" rx="9.50602" ry="9.46153" fill="#FFB700" fill-opacity="0.2"/>
<ellipse cx="79.217" cy="113.538" rx="9.50602" ry="9.46153" fill="#FFB700" fill-opacity="0.2"/>
<ellipse cx="44.3615" cy="113.538" rx="9.50602" ry="9.46153" fill="#FFB700" fill-opacity="0.2"/>
<ellipse cx="114.072" cy="113.538" rx="9.50602" ry="9.46153" fill="#FFB700" fill-opacity="0.2"/>
<ellipse cx="148.927" cy="113.538" rx="9.50602" ry="9.46153" fill="#FFB700" fill-opacity="0.2"/>
<ellipse cx="218.638" cy="113.538" rx="9.50602" ry="9.46153" fill="#FFB700" fill-opacity="0.2"/>
<ellipse cx="183.783" cy="113.538" rx="9.50602" ry="9.46153" fill="#FFB700" fill-opacity="0.2"/>
<ellipse cx="253.494" cy="113.538" rx="9.50602" ry="9.46153" fill="#FFB700" fill-opacity="0.2"/>
<ellipse cx="9.50602" cy="44.1539" rx="9.50602" ry="9.46153" fill="#FFB700" fill-opacity="0.2"/>
<ellipse cx="79.217" cy="44.1539" rx="9.50602" ry="9.46153" fill="#FFB700" fill-opacity="0.2"/>
<ellipse cx="44.3615" cy="44.1539" rx="9.50602" ry="9.46153" fill="#FFB700" fill-opacity="0.2"/>
<ellipse cx="114.072" cy="44.1539" rx="9.50602" ry="9.46153" fill="#FFB700" fill-opacity="0.2"/>
<ellipse cx="148.927" cy="44.1539" rx="9.50602" ry="9.46153" fill="#FFB700" fill-opacity="0.2"/>
<ellipse cx="218.638" cy="44.1539" rx="9.50602" ry="9.46153" fill="#FFB700" fill-opacity="0.2"/>
<ellipse cx="183.783" cy="44.1539" rx="9.50602" ry="9.46153" fill="#FFB700" fill-opacity="0.2"/>
<ellipse cx="253.494" cy="44.1539" rx="9.50602" ry="9.46153" fill="#FFB700" fill-opacity="0.2"/>
</svg>
