<svg width="470" height="276" viewBox="0 0 470 276" fill="none" xmlns="http://www.w3.org/2000/svg">
<rect x="392.181" y="19.957" width="191.589" height="343.607" transform="rotate(90 392.181 19.957)" fill="#FFB700"/>
<path d="M326.111 89.9568C328.338 87.6725 330.389 86.1234 332.264 85.3094C334.14 84.4953 336.449 84.1507 339.191 84.2754C341.966 84.3998 343.996 84.2923 345.281 83.9532C346.582 83.5978 347.678 82.9632 348.569 82.0494C351.257 79.292 351.327 76.6739 348.779 74.1951C347.57 73.0193 346.233 72.4491 344.766 72.4846C343.332 72.5197 341.962 73.1741 340.657 74.4476L333.552 67.5357C336.623 64.451 340.005 62.9889 343.699 63.1494C347.41 63.3257 350.98 65.0823 354.41 68.4191C357.872 71.7876 359.74 75.2418 360.012 78.7814C360.301 82.3048 358.958 85.592 355.983 88.6432C354.631 90.0301 353.041 91.0417 351.211 91.6779C349.398 92.2979 346.983 92.6036 343.968 92.5952L340.147 92.5492C337.745 92.5327 335.674 93.2366 333.936 94.6608L332.382 96.0584L326.111 89.9568ZM318.076 96.7794C319.141 95.6862 320.384 95.1463 321.803 95.1597C323.254 95.1727 324.559 95.7433 325.719 96.8714C326.878 97.9996 327.476 99.2801 327.511 100.713C327.578 102.146 327.079 103.408 326.013 104.502C324.963 105.579 323.729 106.11 322.31 106.097C320.908 106.099 319.61 105.521 318.418 104.361C317.226 103.201 316.604 101.912 316.553 100.496C316.518 99.0951 317.026 97.8562 318.076 96.7794Z" fill="white" fill-opacity="0.2"/>
<path d="M255.292 95.7217C255.292 92.5316 255.679 89.9909 256.454 88.0996C257.229 86.2083 258.642 84.3512 260.692 82.5283C262.766 80.6826 264.145 79.1901 264.828 78.0508C265.512 76.8887 265.854 75.6696 265.854 74.3936C265.854 70.5426 264.076 68.6172 260.521 68.6172C258.835 68.6172 257.479 69.1413 256.454 70.1895C255.451 71.2148 254.927 72.639 254.882 74.4619H244.97C245.015 70.1097 246.417 66.7031 249.174 64.2422C251.954 61.7812 255.736 60.5508 260.521 60.5508C265.352 60.5508 269.101 61.7243 271.767 64.0713C274.433 66.3955 275.766 69.6882 275.766 73.9492C275.766 75.8861 275.333 77.7204 274.467 79.4521C273.601 81.1611 272.086 83.0638 269.921 85.1602L267.152 87.792C265.421 89.4554 264.429 91.4036 264.179 93.6367L264.042 95.7217H255.292ZM254.301 106.215C254.301 104.688 254.813 103.435 255.839 102.455C256.887 101.452 258.22 100.951 259.838 100.951C261.456 100.951 262.777 101.452 263.803 102.455C264.851 103.435 265.375 104.688 265.375 106.215C265.375 107.719 264.862 108.961 263.837 109.94C262.834 110.92 261.501 111.41 259.838 111.41C258.174 111.41 256.83 110.92 255.805 109.94C254.802 108.961 254.301 107.719 254.301 106.215Z" fill="white" fill-opacity="0.2"/>
<path d="M292.516 31.2876C295.706 31.2876 298.247 31.675 300.138 32.4497C302.029 33.2244 303.887 34.6372 305.709 36.688C307.555 38.7616 309.048 40.1401 310.187 40.8237C311.349 41.5073 312.568 41.8491 313.844 41.8491C317.695 41.8491 319.621 40.0718 319.621 36.5171C319.621 34.8309 319.097 33.4751 318.048 32.4497C317.023 31.4471 315.599 30.923 313.776 30.8774L313.776 20.9653C318.128 21.0109 321.535 22.4123 323.996 25.1694C326.457 27.9494 327.687 31.7319 327.687 36.5171C327.687 41.3478 326.514 45.0962 324.167 47.7622C321.842 50.4282 318.55 51.7612 314.289 51.7612C312.352 51.7612 310.517 51.3283 308.786 50.4624C307.077 49.5965 305.174 48.0812 303.078 45.9165L300.446 43.1479C298.782 41.4162 296.834 40.425 294.601 40.1743L292.516 40.0376L292.516 31.2876ZM282.023 30.2964C283.55 30.2964 284.803 30.8091 285.783 31.8345C286.785 32.8826 287.287 34.2157 287.287 35.8335C287.287 37.4513 286.785 38.7729 285.783 39.7983C284.803 40.8465 283.55 41.3706 282.023 41.3706C280.519 41.3706 279.277 40.8579 278.297 39.8325C277.318 38.8299 276.828 37.4969 276.828 35.8335C276.828 34.1701 277.318 32.8257 278.297 31.8003C279.277 30.7977 280.519 30.2964 282.023 30.2964Z" fill="white" fill-opacity="0.2"/>
<path d="M222.599 162.95C221.772 159.869 221.488 157.315 221.747 155.288C222.005 153.261 222.889 151.102 224.397 148.811C225.922 146.492 226.867 144.694 227.233 143.417C227.592 142.117 227.606 140.851 227.276 139.619C226.278 135.9 224.062 134.499 220.629 135.419C219 135.855 217.826 136.711 217.107 137.989C216.404 139.239 216.267 140.75 216.695 142.522L207.12 145.085C206.036 140.87 206.508 137.217 208.533 134.127C210.581 131.031 213.916 128.865 218.539 127.628C223.205 126.378 227.13 126.543 230.314 128.12C233.491 129.676 235.632 132.511 236.736 136.627C237.237 138.498 237.294 140.381 236.906 142.278C236.513 144.152 235.542 146.382 233.994 148.966L232.001 152.224C230.759 154.279 230.307 156.417 230.643 158.638L231.051 160.687L222.599 162.95ZM224.359 173.341C223.964 171.867 224.135 170.524 224.871 169.312C225.624 168.073 226.782 167.244 228.345 166.825C229.907 166.407 231.314 166.55 232.564 167.253C233.831 167.928 234.662 169.003 235.057 170.478C235.447 171.93 235.273 173.262 234.536 174.474C233.822 175.679 232.661 176.497 231.054 176.927C229.447 177.358 228.022 177.232 226.777 176.551C225.555 175.864 224.749 174.794 224.359 173.341Z" fill="white" fill-opacity="0.2"/>
<path d="M284.034 158.469C286.546 156.503 288.786 155.242 290.754 154.686C292.721 154.13 295.055 154.097 297.756 154.587C300.49 155.081 302.516 155.246 303.835 155.082C305.172 154.904 306.343 154.421 307.347 153.635C310.38 151.262 310.8 148.676 308.606 145.879C307.565 144.552 306.316 143.808 304.858 143.648C303.432 143.491 301.987 143.956 300.523 145.044L294.407 137.244C297.862 134.597 301.409 133.6 305.049 134.253C308.702 134.924 312.005 137.142 314.958 140.908C317.939 144.709 319.328 148.382 319.125 151.926C318.94 155.456 317.17 158.535 313.814 161.161C312.289 162.355 310.577 163.144 308.679 163.53C306.799 163.902 304.365 163.883 301.379 163.471L297.598 162.915C295.219 162.577 293.073 162.998 291.16 164.177L289.434 165.354L284.034 158.469ZM275.159 164.156C276.362 163.215 277.665 162.846 279.069 163.049C280.506 163.256 281.723 163.996 282.721 165.269C283.72 166.542 284.14 167.891 283.984 169.316C283.859 170.745 283.195 171.93 281.993 172.871C280.809 173.797 279.514 174.159 278.11 173.956C276.72 173.771 275.511 173.024 274.485 171.715C273.458 170.406 273.015 169.047 273.153 167.636C273.306 166.243 273.975 165.083 275.159 164.156Z" fill="white" fill-opacity="0.2"/>
<path d="M357.227 177.489C356.262 174.448 355.864 171.909 356.031 169.873C356.198 167.836 356.983 165.64 358.387 163.283C359.806 160.898 360.669 159.06 360.977 157.767C361.277 156.453 361.235 155.188 360.849 153.972C359.685 150.301 357.408 149.002 354.019 150.075C352.412 150.583 351.278 151.492 350.617 152.801C349.971 154.081 349.902 155.596 350.409 157.348L340.959 160.338C339.687 156.176 339.993 152.506 341.878 149.328C343.785 146.144 347.019 143.829 351.581 142.386C356.187 140.928 360.115 140.916 363.366 142.348C366.611 143.759 368.877 146.496 370.165 150.558C370.75 152.404 370.892 154.283 370.59 156.195C370.281 158.085 369.411 160.356 367.981 163.008L366.137 166.352C364.989 168.46 364.633 170.616 365.069 172.82L365.569 174.849L357.227 177.489ZM359.454 187.79C358.992 186.335 359.102 184.986 359.783 183.742C360.48 182.47 361.599 181.59 363.142 181.102C364.684 180.614 366.095 180.693 367.376 181.339C368.672 181.957 369.55 182.994 370.012 184.449C370.466 185.882 370.353 187.221 369.671 188.464C369.012 189.701 367.889 190.57 366.303 191.072C364.717 191.574 363.287 191.512 362.014 190.888C360.761 190.256 359.908 189.224 359.454 187.79Z" fill="white" fill-opacity="0.2"/>
<path d="M150.952 180.421C152.548 177.659 154.155 175.653 155.773 174.402C157.39 173.152 159.543 172.25 162.232 171.696C164.951 171.134 166.892 170.531 168.055 169.886C169.228 169.221 170.134 168.336 170.773 167.231C172.7 163.897 172.124 161.342 169.044 159.566C167.584 158.724 166.147 158.5 164.734 158.895C163.353 159.282 162.186 160.253 161.235 161.809L152.648 156.857C154.865 153.111 157.784 150.862 161.404 150.109C165.043 149.367 168.936 150.192 173.081 152.582C177.265 154.996 179.925 157.885 181.06 161.249C182.206 164.593 181.714 168.11 179.581 171.799C178.612 173.476 177.319 174.848 175.703 175.915C174.098 176.962 171.833 177.852 168.909 178.585L165.194 179.481C162.861 180.056 161.028 181.247 159.693 183.056L158.532 184.792L150.952 180.421ZM144.843 189.011C145.607 187.689 146.678 186.86 148.056 186.524C149.466 186.179 150.872 186.411 152.273 187.22C153.675 188.028 154.569 189.122 154.955 190.503C155.373 191.875 155.2 193.222 154.436 194.544C153.683 195.846 152.618 196.665 151.239 197.001C149.88 197.348 148.481 197.106 147.04 196.275C145.599 195.444 144.679 194.348 144.281 192.988C143.903 191.638 144.09 190.313 144.843 189.011Z" fill="white" fill-opacity="0.2"/>
<path d="M118.517 91.734C120.113 94.496 121.049 96.8893 121.324 98.9139C121.599 100.938 121.305 103.252 120.441 105.855C119.568 108.489 119.121 110.47 119.099 111.798C119.088 113.146 119.402 114.372 120.04 115.477C121.967 118.811 124.47 119.59 127.549 117.814C129.01 116.972 129.922 115.84 130.286 114.421C130.641 113.032 130.383 111.537 129.51 109.936L138.096 104.984C140.235 108.775 140.725 112.424 139.568 115.932C138.392 119.452 135.731 122.407 131.586 124.798C127.401 127.212 123.567 128.068 120.083 127.368C116.611 126.688 113.808 124.503 111.676 120.814C110.707 119.137 110.164 117.332 110.048 115.4C109.943 113.488 110.303 111.084 111.13 108.187L112.211 104.525C112.879 102.22 112.762 100.038 111.862 97.9792L110.937 96.1057L118.517 91.734ZM114.125 82.1537C114.889 83.4755 115.072 84.8167 114.674 86.1774C114.268 87.5691 113.364 88.6692 111.962 89.4775C110.561 90.2858 109.165 90.5121 107.775 90.1563C106.377 89.8317 105.296 89.0085 104.532 87.6866C103.78 86.3845 103.602 85.0532 104 83.6925C104.379 82.3433 105.288 81.2531 106.729 80.422C108.17 79.5909 109.58 79.3434 110.958 79.6794C112.317 80.0268 113.373 80.8516 114.125 82.1537Z" fill="white" fill-opacity="0.2"/>
<path d="M79.0533 39.712C82.1349 40.5368 84.4888 41.568 86.1151 42.8053C87.7413 44.0426 89.1693 45.8874 90.3989 48.3395C91.6447 50.8195 92.7293 52.537 93.6527 53.4918C94.5982 54.4526 95.6873 55.0979 96.92 55.4279C100.64 56.4236 102.96 55.2049 103.881 51.7715C104.318 50.1429 104.163 48.6979 103.416 47.4364C102.685 46.2029 101.445 45.3285 99.6963 44.8131L102.264 35.2394C106.456 36.4088 109.384 38.6432 111.047 41.9425C112.704 45.2639 112.913 49.2355 111.673 53.8573C110.422 58.5231 108.317 61.8401 105.359 63.8082C102.423 65.7822 98.8975 66.2183 94.7813 65.1165C92.9104 64.6157 91.2506 63.7232 89.802 62.4391C88.3755 61.1609 86.9301 59.2053 85.4658 56.5724L83.6407 53.2178C82.4825 51.1151 80.8573 49.6539 78.7651 48.8344L76.7865 48.1632L79.0533 39.712ZM69.1738 36.0413C70.6485 36.4361 71.7263 37.2553 72.4072 38.4991C73.1042 39.7707 73.2431 41.1878 72.824 42.7504C72.4048 44.313 71.5782 45.4599 70.3441 46.191C69.126 46.9501 67.7796 47.1322 66.3049 46.7374C64.8521 46.3486 63.7853 45.5323 63.1044 44.2885C62.4177 43.0668 62.2898 41.6526 62.7207 40.046C63.1516 38.4394 63.9731 37.2675 65.1853 36.5305C66.3915 35.8155 67.721 35.6524 69.1738 36.0413Z" fill="white" fill-opacity="0.2"/>
<path d="M86.4962 159.195C84.2393 161.449 82.1678 162.971 80.2817 163.76C78.3956 164.549 76.0823 164.863 73.3418 164.702C70.5691 164.541 68.5379 164.622 67.2483 164.944C65.9425 165.282 64.8382 165.902 63.9355 166.804C61.2111 169.525 61.1063 172.142 63.6211 174.655C64.8141 175.846 66.144 176.434 67.611 176.418C69.0457 176.402 70.424 175.766 71.7459 174.51L78.7583 181.515C75.6471 184.559 72.2456 185.976 68.554 185.767C64.8463 185.541 61.2998 183.738 57.9145 180.356C54.4969 176.942 52.6753 173.463 52.4496 169.92C52.2078 166.393 53.5942 163.124 56.6087 160.112C57.979 158.744 59.5829 157.753 61.4207 157.141C63.2423 156.545 65.6604 156.272 68.6749 156.32L72.4955 156.416C74.8975 156.465 76.977 155.788 78.7341 154.387L80.3059 153.01L86.4962 159.195ZM94.6209 152.479C93.5408 153.558 92.2915 154.081 90.8729 154.049C89.4221 154.017 88.1243 153.429 86.9798 152.286C85.8352 151.142 85.2549 149.854 85.2388 148.421C85.1904 146.987 85.7063 145.731 86.7863 144.652C87.8503 143.589 89.0916 143.074 90.5102 143.106C91.9127 143.122 93.2023 143.718 94.3791 144.894C95.5559 146.069 96.1604 147.366 96.1927 148.783C96.2088 150.184 95.6849 151.416 94.6209 152.479Z" fill="white" fill-opacity="0.2"/>
<path d="M189.376 74.8376C187.119 72.583 185.596 70.5136 184.806 68.6294C184.016 66.7452 183.702 64.4342 183.863 61.6965C184.024 58.9265 183.944 56.8974 183.621 55.609C183.283 54.3046 182.662 53.2014 181.759 52.2996C179.035 49.5779 176.415 49.4732 173.9 51.9855C172.708 53.1773 172.119 54.5059 172.135 55.9714C172.151 57.4047 172.788 58.7816 174.046 60.1021L167.033 67.1075C163.986 63.9994 162.568 60.6014 162.777 56.9135C163.003 53.2095 164.808 49.6665 168.194 46.2846C171.611 42.8705 175.093 41.0507 178.64 40.8252C182.17 40.5836 185.443 41.9686 188.457 44.9801C189.828 46.349 190.819 47.9514 191.432 49.7873C192.028 51.6071 192.302 54.0227 192.254 57.0343L192.157 60.851C192.109 63.2505 192.786 65.328 194.188 67.0834L195.566 68.6536L189.376 74.8376ZM196.098 82.9543C195.018 81.8753 194.494 80.6272 194.527 79.21C194.559 77.7606 195.147 76.4642 196.292 75.3208C197.436 74.1774 198.726 73.5976 200.161 73.5815C201.596 73.5332 202.853 74.0485 203.933 75.1275C204.997 76.1904 205.513 77.4304 205.481 78.8476C205.464 80.2487 204.868 81.5371 203.691 82.7127C202.514 83.8883 201.217 84.4922 199.798 84.5244C198.396 84.5405 197.162 84.0171 196.098 82.9543Z" fill="white" fill-opacity="0.2"/>
</svg>
