<svg width="1176" height="289" viewBox="0 0 1176 289" fill="none" xmlns="http://www.w3.org/2000/svg">
<path d="M153.459 232H118.45V159.18H50.1807V232H15.1709V62.0859H50.1807V130.938H118.45V62.0859H153.459V232ZM255.104 232C253.549 228.966 252.42 225.193 251.72 220.68C243.551 229.783 232.932 234.334 219.861 234.334C207.491 234.334 197.222 230.755 189.053 223.598C180.962 216.44 176.916 207.415 176.916 196.523C176.916 183.142 181.856 172.872 191.737 165.715C201.695 158.557 216.049 154.94 234.799 154.862H250.32V147.626C250.32 141.792 248.803 137.124 245.769 133.623C242.812 130.122 238.105 128.371 231.648 128.371C225.969 128.371 221.495 129.733 218.228 132.456C215.038 135.179 213.443 138.913 213.443 143.659H179.717C179.717 136.346 181.973 129.577 186.485 123.353C190.998 117.129 197.377 112.267 205.624 108.766C213.871 105.187 223.129 103.397 233.398 103.397C248.958 103.397 261.29 107.326 270.392 115.184C279.572 122.964 284.163 133.934 284.163 148.093V202.825C284.24 214.806 285.913 223.87 289.181 230.016V232H255.104ZM227.213 208.543C232.193 208.543 236.783 207.454 240.984 205.276C245.185 203.02 248.297 200.024 250.32 196.29V174.584H237.716C220.834 174.584 211.848 180.419 210.759 192.089L210.642 194.073C210.642 198.274 212.12 201.736 215.077 204.459C218.033 207.182 222.079 208.543 227.213 208.543ZM362.584 207.143C368.808 207.143 373.865 205.431 377.755 202.008C381.645 198.585 383.668 194.034 383.824 188.354H415.449C415.371 196.912 413.037 204.77 408.447 211.928C403.857 219.007 397.555 224.531 389.542 228.499C381.606 232.389 372.815 234.334 363.168 234.334C345.118 234.334 330.881 228.616 320.456 217.179C310.031 205.665 304.818 189.794 304.818 169.566V167.349C304.818 147.899 309.992 132.378 320.339 120.786C330.687 109.194 344.885 103.397 362.935 103.397C378.728 103.397 391.37 107.91 400.862 116.935C410.431 125.882 415.294 137.824 415.449 152.761H383.824C383.668 146.226 381.645 140.936 377.755 136.89C373.865 132.767 368.731 130.705 362.351 130.705C354.493 130.705 348.542 133.584 344.496 139.341C340.528 145.02 338.544 154.278 338.544 167.115V170.616C338.544 183.609 340.528 192.945 344.496 198.624C348.464 204.303 354.493 207.143 362.584 207.143ZM480.567 181.353L468.431 193.489V232H434.705V52.75H468.431V152.061L474.966 143.659L507.292 105.731H547.786L502.157 158.363L551.754 232H513.01L480.567 181.353Z" fill="#FFB700"/>
<path d="M649.884 232C648.328 228.966 647.2 225.193 646.5 220.68C638.331 229.783 627.711 234.334 614.641 234.334C602.271 234.334 592.001 230.755 583.832 223.598C575.741 216.44 571.695 207.415 571.695 196.523C571.695 183.142 576.636 172.872 586.516 165.715C596.475 158.557 610.829 154.94 629.578 154.862H645.099V147.626C645.099 141.792 643.582 137.124 640.548 133.623C637.592 130.122 632.885 128.371 626.427 128.371C620.748 128.371 616.275 129.733 613.007 132.456C609.817 135.179 608.222 138.913 608.222 143.659H574.496C574.496 136.346 576.752 129.577 581.265 123.353C585.777 117.129 592.157 112.267 600.404 108.766C608.65 105.187 617.908 103.397 628.178 103.397C643.738 103.397 656.069 107.326 665.172 115.184C674.352 122.964 678.942 133.934 678.942 148.093V202.825C679.02 214.806 680.693 223.87 683.96 230.016V232H649.884ZM621.993 208.543C626.972 208.543 631.562 207.454 635.763 205.276C639.965 203.02 643.077 200.024 645.099 196.29V174.584H632.496C615.613 174.584 606.627 180.419 605.538 192.089L605.422 194.073C605.422 198.274 606.9 201.736 609.856 204.459C612.813 207.182 616.858 208.543 621.993 208.543ZM745.227 74.6895V105.731H766.817V130.472H745.227V193.489C745.227 198.157 746.122 201.503 747.911 203.525C749.701 205.548 753.124 206.56 758.181 206.56C761.915 206.56 765.222 206.287 768.1 205.743V231.3C761.487 233.323 754.68 234.334 747.678 234.334C724.027 234.334 711.968 222.392 711.501 198.507V130.472H693.063V105.731H711.501V74.6895H745.227ZM818.514 119.502C827.461 108.766 838.703 103.397 852.24 103.397C879.626 103.397 893.513 119.307 893.902 151.127V232H860.176V152.061C860.176 144.826 858.62 139.496 855.508 136.073C852.396 132.572 847.222 130.822 839.987 130.822C830.106 130.822 822.949 134.634 818.514 142.258V232H784.788V52.75H818.514V119.502ZM914.091 167.699C914.091 155.173 916.503 144.009 921.326 134.206C926.15 124.403 933.074 116.818 942.099 111.45C951.201 106.082 961.743 103.397 973.724 103.397C990.762 103.397 1004.65 108.61 1015.39 119.035C1026.2 129.46 1032.23 143.62 1033.47 161.514L1033.71 170.149C1033.71 189.521 1028.3 205.081 1017.49 216.829C1006.67 228.499 992.163 234.334 973.958 234.334C955.753 234.334 941.204 228.499 930.312 216.829C919.498 205.159 914.091 189.288 914.091 169.216V167.699ZM947.817 170.149C947.817 182.131 950.073 191.311 954.586 197.69C959.098 203.992 965.555 207.143 973.958 207.143C982.127 207.143 988.506 204.031 993.096 197.807C997.687 191.505 999.982 181.469 999.982 167.699C999.982 155.951 997.687 146.848 993.096 140.391C988.506 133.934 982.049 130.705 973.724 130.705C965.478 130.705 959.098 133.934 954.586 140.391C950.073 146.771 947.817 156.69 947.817 170.149ZM1085.52 105.731L1086.57 120.319C1095.6 109.038 1107.69 103.397 1122.87 103.397C1136.25 103.397 1146.21 107.326 1152.74 115.184C1159.28 123.042 1162.62 134.79 1162.78 150.427V232H1129.05V151.244C1129.05 144.087 1127.49 138.913 1124.38 135.723C1121.27 132.456 1116.1 130.822 1108.86 130.822C1099.37 130.822 1092.25 134.867 1087.51 142.958V232H1053.78V105.731H1085.52Z" fill="black"/>
<path d="M161.102 225.99H125.945V152.865H57.3906V225.99H22.2344V55.3645H57.3906V124.505H125.945V55.3645H161.102V225.99ZM263.172 225.99C261.609 222.943 260.477 219.154 259.773 214.622C251.57 223.763 240.906 228.333 227.781 228.333C215.359 228.333 205.047 224.74 196.844 217.552C188.719 210.365 184.656 201.302 184.656 190.365C184.656 176.927 189.617 166.615 199.539 159.427C209.539 152.24 223.953 148.607 242.781 148.529H258.367V141.263C258.367 135.404 256.844 130.716 253.797 127.2C250.828 123.685 246.102 121.927 239.617 121.927C233.914 121.927 229.422 123.294 226.141 126.029C222.938 128.763 221.336 132.513 221.336 137.279H187.469C187.469 129.935 189.734 123.138 194.266 116.888C198.797 110.638 205.203 105.755 213.484 102.24C221.766 98.6458 231.062 96.8489 241.375 96.8489C257 96.8489 269.383 100.794 278.523 108.685C287.742 116.497 292.352 127.513 292.352 141.732V196.693C292.43 208.724 294.109 217.825 297.391 223.997V225.99H263.172ZM235.164 202.435C240.164 202.435 244.773 201.341 248.992 199.154C253.211 196.888 256.336 193.88 258.367 190.13V168.333H245.711C228.758 168.333 219.734 174.193 218.641 185.911L218.523 187.904C218.523 192.122 220.008 195.599 222.977 198.333C225.945 201.068 230.008 202.435 235.164 202.435ZM371.102 201.029C377.352 201.029 382.43 199.31 386.336 195.872C390.242 192.435 392.273 187.865 392.43 182.161H424.188C424.109 190.755 421.766 198.646 417.156 205.833C412.547 212.943 406.219 218.49 398.172 222.474C390.203 226.38 381.375 228.333 371.688 228.333C353.562 228.333 339.266 222.591 328.797 211.107C318.328 199.544 313.094 183.607 313.094 163.294V161.068C313.094 141.536 318.289 125.95 328.68 114.31C339.07 102.669 353.328 96.8489 371.453 96.8489C387.312 96.8489 400.008 101.38 409.539 110.443C419.148 119.427 424.031 131.419 424.188 146.419H392.43C392.273 139.857 390.242 134.544 386.336 130.482C382.43 126.341 377.273 124.271 370.867 124.271C362.977 124.271 357 127.161 352.938 132.943C348.953 138.646 346.961 147.943 346.961 160.833V164.349C346.961 177.396 348.953 186.771 352.938 192.474C356.922 198.177 362.977 201.029 371.102 201.029ZM489.578 175.13L477.391 187.318V225.99H443.523V45.9895H477.391V145.716L483.953 137.279L516.414 99.1926H557.078L511.258 152.044L561.062 225.99H522.156L489.578 175.13Z" fill="white"/>
<path d="M170.102 223V225H172.102V223H170.102ZM134.945 223H132.945V225H134.945V223ZM134.945 149.875H136.945V147.875H134.945V149.875ZM66.3906 149.875V147.875H64.3906V149.875H66.3906ZM66.3906 223V225H68.3906V223H66.3906ZM31.2344 223H29.2344V225H31.2344V223ZM31.2344 52.375V50.375H29.2344V52.375H31.2344ZM66.3906 52.375H68.3906V50.375H66.3906V52.375ZM66.3906 121.516H64.3906V123.516H66.3906V121.516ZM134.945 121.516V123.516H136.945V121.516H134.945ZM134.945 52.375V50.375H132.945V52.375H134.945ZM170.102 52.375H172.102V50.375H170.102V52.375ZM170.102 221H134.945V225H170.102V221ZM136.945 223V149.875H132.945V223H136.945ZM134.945 147.875H66.3906V151.875H134.945V147.875ZM64.3906 149.875V223H68.3906V149.875H64.3906ZM66.3906 221H31.2344V225H66.3906V221ZM33.2344 223V52.375H29.2344V223H33.2344ZM31.2344 54.375H66.3906V50.375H31.2344V54.375ZM64.3906 52.375V121.516H68.3906V52.375H64.3906ZM66.3906 123.516H134.945V119.516H66.3906V123.516ZM136.945 121.516V52.375H132.945V121.516H136.945ZM134.945 54.375H170.102V50.375H134.945V54.375ZM168.102 52.375V223H172.102V52.375H168.102ZM272.172 223L270.392 223.913L270.95 225H272.172V223ZM268.773 211.633L270.75 211.326L270.103 207.157L267.285 210.297L268.773 211.633ZM205.844 214.562L204.519 216.061L204.526 216.067L205.844 214.562ZM208.539 156.438L207.372 154.813L207.366 154.818L208.539 156.438ZM251.781 145.539V143.539L251.773 143.539L251.781 145.539ZM267.367 145.539V147.539H269.367V145.539H267.367ZM262.797 124.211L261.269 125.501L261.277 125.511L261.285 125.521L262.797 124.211ZM235.141 123.039L233.86 121.503L233.851 121.51L233.842 121.518L235.141 123.039ZM230.336 134.289V136.289H232.336V134.289H230.336ZM196.469 134.289H194.469V136.289H196.469V134.289ZM222.484 99.25L223.266 101.091L223.273 101.088L223.281 101.085L222.484 99.25ZM287.523 105.695L286.217 107.209L286.223 107.215L286.23 107.221L287.523 105.695ZM301.352 193.703H299.352L299.352 193.716L301.352 193.703ZM306.391 221.008H308.391V220.509L308.157 220.069L306.391 221.008ZM306.391 223V225H308.391V223H306.391ZM257.992 196.164L258.913 197.94L258.926 197.933L258.938 197.926L257.992 196.164ZM267.367 187.141L269.126 188.093L269.367 187.648V187.141H267.367ZM267.367 165.344H269.367V163.344H267.367V165.344ZM227.641 182.922L225.649 182.736L225.646 182.77L225.644 182.804L227.641 182.922ZM227.523 184.914L225.527 184.797L225.523 184.855V184.914H227.523ZM273.952 222.087C272.513 219.283 271.431 215.713 270.75 211.326L266.797 211.939C267.523 216.615 268.705 220.623 270.392 223.913L273.952 222.087ZM267.285 210.297C259.49 218.983 249.382 223.344 236.781 223.344V227.344C250.43 227.344 261.651 222.564 270.262 212.969L267.285 210.297ZM236.781 223.344C224.772 223.344 214.95 219.882 207.162 213.058L204.526 216.067C213.144 223.618 223.946 227.344 236.781 227.344V223.344ZM207.169 213.065C199.477 206.26 195.656 197.745 195.656 187.375H191.656C191.656 198.88 195.96 208.49 204.519 216.06L207.169 213.065ZM195.656 187.375C195.656 174.507 200.366 164.828 209.712 158.057L207.366 154.818C196.869 162.422 191.656 173.368 191.656 187.375H195.656ZM209.706 158.062C219.233 151.214 233.171 147.616 251.79 147.539L251.773 143.539C232.735 143.618 217.845 147.286 207.372 154.813L209.706 158.062ZM251.781 147.539H267.367V143.539H251.781V147.539ZM269.367 145.539V138.273H265.367V145.539H269.367ZM269.367 138.273C269.367 132.062 267.745 126.867 264.308 122.901L261.285 125.521C263.942 128.586 265.367 132.766 265.367 138.273H269.367ZM264.325 122.921C260.84 118.793 255.44 116.938 248.617 116.938V120.938C254.763 120.938 258.817 122.597 261.269 125.501L264.325 122.921ZM248.617 116.938C242.604 116.938 237.606 118.381 233.86 121.503L236.421 124.576C239.238 122.228 243.224 120.938 248.617 120.938V116.938ZM233.842 121.518C230.132 124.685 228.336 129.024 228.336 134.289H232.336C232.336 130.023 233.743 126.862 236.439 124.56L233.842 121.518ZM230.336 132.289H196.469V136.289H230.336V132.289ZM198.469 134.289C198.469 127.389 200.588 121 204.885 115.072L201.646 112.725C196.881 119.297 194.469 126.501 194.469 134.289H198.469ZM204.885 115.072C209.17 109.162 215.263 104.488 223.266 101.091L221.703 97.409C213.143 101.043 206.424 106.134 201.646 112.725L204.885 115.072ZM223.281 101.085C231.277 97.6144 240.298 95.8594 250.375 95.8594V91.8594C239.827 91.8594 230.254 93.6981 221.688 97.4153L223.281 101.085ZM250.375 95.8594C265.664 95.8594 277.535 99.715 286.217 107.209L288.83 104.181C279.231 95.8944 266.336 91.8594 250.375 91.8594V95.8594ZM286.23 107.221C294.92 114.585 299.352 124.996 299.352 138.742H303.352C303.352 124.051 298.564 112.431 288.816 104.17L286.23 107.221ZM299.352 138.742V193.703H303.352V138.742H299.352ZM299.352 193.716C299.431 205.868 301.119 215.353 304.625 221.947L308.157 220.069C305.1 214.319 303.429 205.601 303.352 193.69L299.352 193.716ZM304.391 221.008V223H308.391V221.008H304.391ZM306.391 221H272.172V225H306.391V221ZM244.164 201.445C249.467 201.445 254.395 200.282 258.913 197.94L257.072 194.389C253.152 196.421 248.861 197.445 244.164 197.445V201.445ZM258.938 197.926C263.457 195.499 266.886 192.228 269.126 188.093L265.609 186.188C263.786 189.554 260.964 192.298 257.046 194.402L258.938 197.926ZM269.367 187.141V165.344H265.367V187.141H269.367ZM267.367 163.344H254.711V167.344H267.367V163.344ZM254.711 163.344C246.052 163.344 239.112 164.832 234.139 168.061C229.062 171.358 226.247 176.333 225.649 182.736L229.632 183.108C230.128 177.792 232.372 173.978 236.318 171.416C240.368 168.785 246.417 167.344 254.711 167.344V163.344ZM225.644 182.804L225.527 184.797L229.52 185.032L229.637 183.039L225.644 182.804ZM225.523 184.914C225.523 189.663 227.221 193.683 230.622 196.815L233.332 193.873C230.794 191.536 229.523 188.602 229.523 184.914H225.523ZM230.622 196.815C234.054 199.976 238.65 201.445 244.164 201.445V197.445C239.366 197.445 235.837 196.18 233.332 193.873L230.622 196.815ZM401.43 179.172V177.172H399.484L399.43 179.117L401.43 179.172ZM433.188 179.172L435.187 179.19L435.206 177.172H433.188V179.172ZM426.156 202.844L427.834 203.932L427.84 203.923L426.156 202.844ZM407.172 219.484L408.052 221.28L408.059 221.277L407.172 219.484ZM337.797 208.117L336.314 209.46L336.319 209.465L337.797 208.117ZM337.68 111.32L336.188 109.988L337.68 111.32ZM418.539 107.453L417.161 108.903L417.167 108.908L417.173 108.914L418.539 107.453ZM433.188 143.43V145.43H435.208L435.187 143.409L433.188 143.43ZM401.43 143.43L399.43 143.477L399.477 145.43H401.43V143.43ZM395.336 127.492L393.881 128.865L393.888 128.872L393.894 128.878L395.336 127.492ZM361.938 129.953L360.301 128.803L360.298 128.808L361.938 129.953ZM380.102 200.039C386.735 200.039 392.315 198.205 396.657 194.384L394.015 191.381C390.544 194.436 385.968 196.039 380.102 196.039V200.039ZM396.657 194.384C401.023 190.542 403.259 185.426 403.429 179.227L399.43 179.117C399.288 184.324 397.461 188.349 394.015 191.381L396.657 194.384ZM401.43 181.172H433.188V177.172H401.43V181.172ZM431.188 179.154C431.113 187.373 428.877 194.896 424.473 201.764L427.84 203.923C432.654 196.417 435.106 188.158 435.187 179.19L431.188 179.154ZM424.478 201.756C420.076 208.545 414.029 213.857 406.284 217.692L408.059 221.277C416.408 217.143 423.018 211.361 427.834 203.932L424.478 201.756ZM406.292 217.689C398.621 221.448 390.098 223.344 380.688 223.344V227.344C390.652 227.344 399.785 225.333 408.052 221.28L406.292 217.689ZM380.688 223.344C363.022 223.344 349.301 217.768 339.275 206.77L336.319 209.465C347.231 221.435 362.103 227.344 380.688 227.344V223.344ZM339.279 206.775C329.234 195.68 324.094 180.275 324.094 160.305H320.094C320.094 180.959 325.422 197.429 336.314 209.46L339.279 206.775ZM324.094 160.305V158.078H320.094V160.305H324.094ZM324.094 158.078C324.094 138.91 329.185 123.841 339.172 112.652L336.188 109.988C325.393 122.081 320.094 138.184 320.094 158.078H324.094ZM339.172 112.652C349.12 101.507 362.797 95.8594 380.453 95.8594V91.8594C361.86 91.8594 347.02 97.8525 336.188 109.988L339.172 112.652ZM380.453 95.8594C395.911 95.8594 408.075 100.264 417.161 108.903L419.917 106.004C409.94 96.5175 396.714 91.8594 380.453 91.8594V95.8594ZM417.173 108.914C426.326 117.471 431.036 128.913 431.188 143.451L435.187 143.409C435.026 127.946 429.971 115.404 419.905 105.992L417.173 108.914ZM433.188 141.43H401.43V145.43H433.188V141.43ZM403.429 143.382C403.263 136.407 401.087 130.588 396.778 126.106L393.894 128.878C397.397 132.521 399.284 137.327 399.43 143.477L403.429 143.382ZM396.791 126.12C392.457 121.526 386.748 119.281 379.867 119.281V123.281C385.799 123.281 390.402 125.177 393.881 128.865L396.791 126.12ZM379.867 119.281C371.414 119.281 364.786 122.421 360.301 128.803L363.574 131.103C367.214 125.923 372.539 123.281 379.867 123.281V119.281ZM360.298 128.808C355.951 135.029 353.961 144.844 353.961 157.844H357.961C357.961 145.062 359.955 136.283 363.577 131.099L360.298 128.808ZM353.961 157.844V161.359H357.961V157.844H353.961ZM353.961 161.359C353.961 174.509 355.949 184.405 360.298 190.63L363.577 188.339C359.957 183.157 357.961 174.304 357.961 161.359H353.961ZM360.298 190.63C364.723 196.964 371.449 200.039 380.102 200.039V196.039C372.504 196.039 367.12 193.411 363.577 188.339L360.298 190.63ZM498.578 172.141L500.262 171.062L498.922 168.969L497.164 170.726L498.578 172.141ZM486.391 184.328L484.976 182.914L484.391 183.5V184.328H486.391ZM486.391 223V225H488.391V223H486.391ZM452.523 223H450.523V225H452.523V223ZM452.523 43V41H450.523V43H452.523ZM486.391 43H488.391V41H486.391V43ZM486.391 142.727H484.391V148.556L487.969 143.954L486.391 142.727ZM492.953 134.289L491.431 132.992L491.402 133.026L491.374 133.061L492.953 134.289ZM525.414 96.2031V94.2031H524.491L523.892 94.9058L525.414 96.2031ZM566.078 96.2031L567.589 97.5132L570.459 94.2031H566.078V96.2031ZM520.258 149.055L518.747 147.745L517.743 148.902L518.599 150.172L520.258 149.055ZM570.062 223V225H573.821L571.721 221.883L570.062 223ZM531.156 223L529.472 224.079L530.062 225H531.156V223ZM497.164 170.726L484.976 182.914L487.805 185.742L499.992 173.555L497.164 170.726ZM484.391 184.328V223H488.391V184.328H484.391ZM486.391 221H452.523V225H486.391V221ZM454.523 223V43H450.523V223H454.523ZM452.523 45H486.391V41H452.523V45ZM484.391 43V142.727H488.391V43H484.391ZM487.969 143.954L494.532 135.517L491.374 133.061L484.812 141.499L487.969 143.954ZM494.475 135.586L526.936 97.5005L523.892 94.9058L491.431 132.992L494.475 135.586ZM525.414 98.2031H566.078V94.2031H525.414V98.2031ZM564.567 94.893L518.747 147.745L521.769 150.365L567.589 97.5132L564.567 94.893ZM518.599 150.172L568.404 224.117L571.721 221.883L521.917 147.937L518.599 150.172ZM570.062 221H531.156V225H570.062V221ZM532.84 221.921L500.262 171.062L496.894 173.219L529.472 224.079L532.84 221.921Z" fill="black"/>
</svg>
